<svg width="94" height="463" viewBox="0 0 94 463" fill="none" xmlns="http://www.w3.org/2000/svg">
<path d="M60.6 34.2V190.8C60.6 195.6 59.4 201.6 57 208.8C55 216 50.8 222.4 44.4 228C50.8 233.2 55 239.6 57 247.2C59.4 254.4 60.6 260.4 60.6 265.2V428.4H93.6V462.6H37.2C34 462.6 30.8 461.2 27.6 458.4C24.8 456 23.4 451.4 23.4 444.6V276C23.4 268 21.4 260.8 17.4 254.4C13.4 247.6 7.6 243.8 0 243V211.8C5.6 211.8 10 210 13.2 206.4C16.8 202.4 19.4 197.8 21 192.6C22.6 187.4 23.4 183.2 23.4 180V18C23.4 10.4 25.2 5.59999 28.8 3.59999C32.4 1.2 35.2 0 37.2 0H93.6V34.2H60.6Z" fill="#6491E6"/>
</svg>
