<svg width="1032" height="155" viewBox="0 0 1032 155" fill="none" xmlns="http://www.w3.org/2000/svg">
<path d="M140.729 10.6771C140.972 10.8594 141.094 11.1328 141.094 11.4974C141.094 11.9227 140.851 12.1354 140.365 12.1354C140.122 12.1354 139.939 12.0747 139.818 11.9531C137.752 10.5556 135.595 9.52256 133.346 8.85416C131.159 8.18576 129.002 7.7908 126.875 7.66927C126.45 7.97309 125.356 8.76302 123.594 10.0391C121.832 11.3151 119.674 13.138 117.122 15.5078C114.57 17.8776 111.806 20.8247 108.828 24.349C105.851 27.8125 102.934 31.8837 100.078 36.5625C97.2222 41.2413 94.5486 46.5278 92.0573 52.4219C89.6267 58.316 87.7127 64.8785 86.3151 72.1094C88.8064 71.5017 90.9635 70.8333 92.7865 70.1042C94.6701 69.3142 96.2196 68.6155 97.4349 68.0078C98.6502 67.3394 99.5616 66.7925 100.169 66.3672C100.838 65.8811 101.202 65.6076 101.263 65.5469C101.506 65.4253 101.688 65.3646 101.81 65.3646C101.992 65.3646 102.174 65.4253 102.357 65.5469C102.539 65.6684 102.63 65.8507 102.63 66.0938C102.63 66.3368 102.509 66.5799 102.266 66.8229C102.266 66.8229 101.931 67.0964 101.263 67.6432C100.595 68.1293 99.5616 68.737 98.1641 69.4661C96.8273 70.1345 95.1259 70.8941 93.0599 71.7448C91.0547 72.5347 88.6849 73.2335 85.9505 73.8411C85.2821 77.9123 84.796 82.0747 84.4922 86.3281C84.1884 90.5816 84.0365 95.1389 84.0365 100H82.3958C82.3958 96.1719 82.0313 92.1615 81.3021 87.9688C80.5729 83.776 79.3576 79.553 77.6562 75.2995C76.3194 75.421 75.013 75.5122 73.737 75.5729C72.4609 75.6337 71.1241 75.6641 69.7266 75.6641C65.4123 75.6641 61.645 75.4514 58.4245 75.026C55.204 74.5399 52.4392 73.9627 50.1302 73.2943C47.6389 77.3655 45.178 81.2847 42.7474 85.0521C40.3168 88.7587 37.7648 92.0399 35.0911 94.8958C32.4783 97.7517 29.6832 100.03 26.7057 101.732C23.7283 103.433 20.447 104.284 16.862 104.284C14.4922 104.284 12.487 103.889 10.8464 103.099C9.20573 102.309 7.83854 101.306 6.74479 100.091C5.65104 98.8759 4.80035 97.5694 4.19271 96.1719C3.58507 94.7135 3.12934 93.3767 2.82552 92.1615C2.5217 90.8854 2.33941 89.7917 2.27865 88.8802C2.21788 87.9687 2.1875 87.4523 2.1875 87.3307C2.1875 86.7231 2.46094 86.4193 3.00781 86.4193C3.55469 86.4193 3.82812 86.6927 3.82812 87.2396C3.82812 88.4549 4.01042 89.9436 4.375 91.7057C4.80035 93.4071 5.49913 95.0781 6.47135 96.7188C7.50434 98.3594 8.87153 99.7569 10.5729 100.911C12.2743 102.066 14.401 102.643 16.9531 102.643C20.2344 102.643 23.2422 101.823 25.9766 100.182C28.7717 98.6024 31.4149 96.4453 33.9062 93.7109C36.3976 90.9766 38.8281 87.8168 41.1979 84.2318C43.5677 80.5859 46.0286 76.7578 48.5807 72.7474C45.6033 71.5321 43.4766 70.1345 42.2005 68.5547C40.9245 66.9748 40.2865 65.3038 40.2865 63.5417C40.2865 61.901 40.6207 60.5035 41.2891 59.349C42.0182 58.1337 42.9601 57.1615 44.1146 56.4323C45.3299 55.7031 46.697 55.1866 48.2161 54.8828C49.7352 54.5182 51.3151 54.3359 52.9557 54.3359C54.1102 54.3359 55.2648 54.3967 56.4193 54.5182C57.6345 54.6398 58.8498 54.8828 60.0651 55.2474C60.3689 54.7613 60.7031 54.2752 61.0677 53.7891C61.4323 53.2422 61.7969 52.7257 62.1615 52.2396C67.0226 45.6771 71.8533 39.5703 76.6536 33.9193C81.5148 28.2682 86.4974 23.4071 91.6016 19.3359C96.7057 15.204 101.992 11.9835 107.461 9.67448C112.99 7.30468 118.854 6.11979 125.052 6.11979C127.543 6.11979 130.126 6.42361 132.799 7.03125C135.534 7.63889 138.177 8.85416 140.729 10.6771ZM41.9271 63.5417C41.9271 64.5747 42.1398 65.4861 42.5651 66.276C43.0512 67.066 43.6589 67.7951 44.388 68.4635C45.1172 69.0712 45.9071 69.6181 46.7578 70.1042C47.6693 70.5295 48.5807 70.9245 49.4922 71.2891C51.0113 68.9193 52.5304 66.5191 54.0495 64.0885C55.6293 61.5972 57.3003 59.1059 59.0625 56.6146C57.1181 56.1285 55.0825 55.8854 52.9557 55.8854C51.8012 55.8854 50.5859 56.0069 49.3099 56.25C48.0339 56.4323 46.849 56.7969 45.7552 57.3438C44.6615 57.8906 43.75 58.6806 43.0208 59.7135C42.2917 60.6858 41.9271 61.9618 41.9271 63.5417ZM66.4453 74.0234C68.1467 74.0234 69.8481 74.0234 71.5495 74.0234C73.2509 73.9627 75.0738 73.8411 77.0182 73.6589C75.3776 70.013 73.2509 66.7014 70.638 63.724C68.0252 60.6858 64.7135 58.4983 60.7031 57.1615C58.941 59.592 57.27 62.0529 55.6901 64.5443C54.171 66.9748 52.6215 69.4054 51.0417 71.8359C52.9253 72.3828 55.1128 72.8689 57.6042 73.2943C60.0955 73.6589 63.0425 73.9019 66.4453 74.0234ZM82.6693 87.1484C82.7908 84.8394 82.9731 82.6215 83.2161 80.4948C83.52 78.3681 83.8542 76.3021 84.2188 74.2969C82.6389 74.6007 80.9983 74.8741 79.2969 75.1172C80.1476 77.0616 80.8464 79.0972 81.3932 81.224C81.9401 83.2899 82.3655 85.2648 82.6693 87.1484ZM104.18 27.5391C106.185 24.8047 108.19 22.3741 110.195 20.2474C112.201 18.0599 114.054 16.1458 115.755 14.5052C117.517 12.8646 119.097 11.4974 120.495 10.4036C121.953 9.24913 123.138 8.33767 124.049 7.66927C118.216 7.91232 112.656 9.21875 107.37 11.5885C102.144 13.8976 97.0703 17.0573 92.1484 21.0677C87.2873 25.0174 82.487 29.7266 77.7474 35.1953C73.0686 40.6641 68.329 46.6797 63.5286 53.2422C63.2248 53.6675 62.921 54.0929 62.6172 54.5182C62.3134 54.8828 62.0096 55.2778 61.7057 55.7031C65.9592 57.283 69.4531 59.6832 72.1875 62.9036C74.9219 66.1241 77.079 69.6484 78.6589 73.4766C79.6918 73.355 80.6944 73.2335 81.6667 73.112C82.6997 72.9297 83.6719 72.7474 84.5833 72.5651C85.4948 67.6432 86.6493 63.0556 88.0469 58.8021C89.4444 54.4878 90.9939 50.4774 92.6953 46.7708C94.4575 43.0035 96.3108 39.5399 98.2552 36.3802C100.2 33.1597 102.174 30.2127 104.18 27.5391ZM201.706 112.214C201.706 110.816 202.101 109.692 202.891 108.841C203.741 108.051 204.744 107.444 205.898 107.018C207.053 106.654 208.268 106.411 209.544 106.289C210.82 106.168 211.884 106.107 212.734 106.107C213.889 106.107 215.013 106.137 216.107 106.198C217.261 106.319 218.294 106.441 219.206 106.562C220.239 105.104 221.332 103.403 222.487 101.458C223.641 99.5139 224.735 97.2656 225.768 94.7135C226.801 92.1007 227.773 89.1536 228.685 85.8724C229.596 82.5304 230.356 78.7326 230.964 74.4792C228.168 78.8542 225.191 82.6215 222.031 85.7812C218.932 88.8802 215.773 91.4931 212.552 93.6198C209.332 95.7465 206.141 97.4479 202.982 98.724C199.822 100 196.845 100.972 194.049 101.641C191.254 102.309 188.733 102.734 186.484 102.917C184.236 103.16 182.413 103.281 181.016 103.281C178.646 103.22 176.519 103.129 174.635 103.008C172.813 102.947 171.141 102.856 169.622 102.734C168.164 102.613 166.797 102.491 165.521 102.37C164.306 102.309 163.151 102.218 162.057 102.096C160.66 105.56 158.594 108.325 155.859 110.391C153.186 112.517 150.208 113.581 146.927 113.581C144.983 113.581 143.312 113.095 141.914 112.122C140.516 111.15 139.818 109.874 139.818 108.294C139.818 106.654 140.334 105.317 141.367 104.284C142.339 103.251 143.585 102.4 145.104 101.732C146.623 101.124 148.234 100.699 149.935 100.456C151.636 100.213 153.216 100.091 154.674 100.091C156.862 100.091 158.958 100.182 160.964 100.365C161.875 97.934 163.06 95.1389 164.518 91.9792C166.037 88.7587 167.708 85.3863 169.531 81.862C171.415 78.3377 173.42 74.8134 175.547 71.2891C177.734 67.704 179.983 64.3316 182.292 61.1719C185.391 56.9184 188.186 53.2422 190.677 50.1432C193.168 46.9835 195.447 44.2795 197.513 42.0312C199.64 39.7222 201.584 37.7474 203.346 36.1068C205.109 34.4661 206.84 32.9774 208.542 31.6406C203.802 31.033 199.64 30.0911 196.055 28.8151C192.53 27.4783 189.158 26.1415 185.938 24.8047C182.778 23.4679 179.588 22.3134 176.367 21.3411C173.147 20.3082 169.501 19.7917 165.43 19.7917C163.911 19.7917 162.3 19.9436 160.599 20.2474C158.958 20.4904 157.439 20.9766 156.042 21.7057C154.705 22.3741 153.581 23.316 152.669 24.5312C151.758 25.7465 151.302 27.3264 151.302 29.2708C151.302 30.7899 151.636 32.0964 152.305 33.1901C153.034 34.2231 153.915 35.0738 154.948 35.7422C155.981 36.3498 157.075 36.8056 158.229 37.1094C159.384 37.3524 160.417 37.474 161.328 37.474C161.814 37.474 162.057 37.717 162.057 38.2031C162.057 38.8108 161.784 39.1146 161.237 39.1146C161.115 39.1146 160.447 39.0538 159.232 38.9323C158.016 38.75 156.68 38.3247 155.221 37.6562C153.824 36.9878 152.517 36.0156 151.302 34.7396C150.148 33.4028 149.57 31.5799 149.57 29.2708C149.57 27.0226 150.087 25.1693 151.12 23.7109C152.153 22.2526 153.459 21.1285 155.039 20.3385C156.619 19.4878 158.32 18.9106 160.143 18.6068C162.027 18.3029 163.789 18.151 165.43 18.151C169.744 18.151 173.602 18.6979 177.005 19.7917C180.469 20.8246 183.872 22.0399 187.214 23.4375C190.556 24.8351 194.049 26.2023 197.695 27.5391C201.341 28.8151 205.534 29.6962 210.273 30.1823C211.489 29.2101 212.704 28.1771 213.919 27.0833C215.195 25.9896 216.502 24.987 217.839 24.0755C219.175 23.1033 220.543 22.3134 221.94 21.7057C223.338 21.0981 224.826 20.7943 226.406 20.7943C227.804 20.7943 229.019 21.2196 230.052 22.0703C231.085 22.8602 231.602 24.0451 231.602 25.625C231.602 27.3264 231.024 28.6328 229.87 29.5443C228.715 30.395 227.318 31.033 225.677 31.4583C224.036 31.8229 222.335 32.0356 220.573 32.0964C218.872 32.0964 217.474 32.0964 216.38 32.0964C214.375 32.0964 212.522 32.0052 210.82 31.8229C209.058 33.2812 207.266 34.8307 205.443 36.4714C203.62 38.112 201.615 40.0868 199.427 42.3958C197.3 44.6441 194.931 47.3481 192.318 50.5078C189.766 53.6675 186.849 57.526 183.568 62.0833C181.38 65.1215 179.223 68.4028 177.096 71.9271C174.97 75.3906 172.964 78.8542 171.081 82.3177C169.258 85.7205 167.617 89.0017 166.159 92.1615C164.701 95.3212 163.516 98.0859 162.604 100.456C166.007 100.76 168.832 100.972 171.081 101.094C173.39 101.276 175.213 101.398 176.549 101.458C177.947 101.58 178.98 101.641 179.648 101.641C180.317 101.641 180.773 101.641 181.016 101.641C182.474 101.641 184.358 101.519 186.667 101.276C188.976 101.094 191.528 100.638 194.323 99.9089C197.179 99.1797 200.217 98.1467 203.438 96.8099C206.658 95.4123 209.878 93.559 213.099 91.25C216.38 88.941 219.57 86.0851 222.669 82.6823C225.829 79.2795 228.776 75.2083 231.51 70.4688C231.51 70.1042 231.541 69.8307 231.602 69.6484C232.27 63.8759 232.847 58.3767 233.333 53.151C233.819 47.9253 234.427 43.3377 235.156 39.388C235.885 35.3776 236.858 32.2179 238.073 29.9089C239.288 27.5391 240.929 26.3542 242.995 26.3542C243.785 26.3542 244.392 26.7187 244.818 27.4479C245.243 28.1771 245.456 29.1493 245.456 30.3646C245.456 30.9722 245.425 31.4887 245.365 31.9141C245.304 32.2786 245.273 32.5217 245.273 32.6432C244.058 40.7856 242.387 47.9861 240.26 54.2448C238.194 60.5035 235.794 66.0634 233.06 70.9245C232.513 75.8464 231.784 80.1606 230.872 83.8672C230.022 87.5738 229.049 90.855 227.956 93.7109C226.862 96.5061 225.707 98.9366 224.492 101.003C223.338 103.129 222.183 105.043 221.029 106.745C221.576 106.806 222.153 106.836 222.76 106.836C223.429 106.897 224.128 106.927 224.857 106.927C227.287 106.927 230.113 106.684 233.333 106.198C236.615 105.773 240.078 104.77 243.724 103.19C247.37 101.671 251.137 99.4531 255.026 96.5365C258.976 93.559 262.865 89.5486 266.693 84.5052C269.063 81.3455 271.311 77.8212 273.438 73.9323C275.564 69.9826 277.418 65.6076 278.997 60.8073C280.577 55.9462 281.853 50.6597 282.826 44.9479C283.859 39.2361 284.466 33.0382 284.648 26.3542C284.648 25.8073 284.922 25.5339 285.469 25.5339C286.016 25.5339 286.289 25.8377 286.289 26.4453C286.046 35.4384 285.074 43.5807 283.372 50.8724C281.732 58.1641 279.605 64.6962 276.992 70.4688C274.379 76.1806 271.402 81.1632 268.06 85.4167C264.718 89.6701 261.285 93.2856 257.76 96.263C254.236 99.2405 250.742 101.61 247.279 103.372C243.815 105.135 240.655 106.38 237.799 107.109C235.43 107.717 233.121 108.112 230.872 108.294C228.624 108.477 226.619 108.568 224.857 108.568C222.791 108.568 221.181 108.477 220.026 108.294C218.264 110.725 216.289 112.76 214.102 114.401C211.975 116.042 209.544 116.862 206.81 116.862C205.412 116.862 204.227 116.528 203.255 115.859C202.283 115.191 201.766 113.976 201.706 112.214ZM211.641 114.036C212.977 113.368 214.223 112.457 215.378 111.302C216.532 110.148 217.474 109.054 218.203 108.021C216.806 107.839 215.135 107.747 213.19 107.747C212.643 107.747 211.823 107.747 210.729 107.747C209.635 107.808 208.542 107.96 207.448 108.203C206.354 108.507 205.382 108.963 204.531 109.57C203.741 110.178 203.346 111.059 203.346 112.214C203.346 113.429 203.711 114.249 204.44 114.674C205.169 115.1 205.959 115.312 206.81 115.312C207.661 115.312 208.511 115.161 209.362 114.857C210.273 114.614 211.033 114.34 211.641 114.036ZM143.281 104.831C142.795 105.317 142.4 105.864 142.096 106.471C141.732 107.079 141.549 107.717 141.549 108.385C141.549 109.661 142.127 110.573 143.281 111.12C144.436 111.667 145.621 111.94 146.836 111.94C150.056 111.94 152.791 110.968 155.039 109.023C157.348 107.14 159.11 104.8 160.326 102.005C159.414 101.884 158.472 101.793 157.5 101.732C156.528 101.671 155.525 101.641 154.492 101.641C152.365 101.641 150.299 101.853 148.294 102.279C146.35 102.765 144.679 103.615 143.281 104.831ZM241.081 28.724C239.926 30 238.984 31.7925 238.255 34.1016C237.526 36.3498 236.888 39.0538 236.341 42.2135C235.855 45.3733 235.399 48.9887 234.974 53.0599C234.609 57.0703 234.154 61.5365 233.607 66.4583C235.855 61.901 237.83 56.7665 239.531 51.0547C241.293 45.2821 242.691 38.8411 243.724 31.7318C243.724 31.5495 243.724 31.3064 243.724 31.0026C243.785 30.638 243.815 30.2734 243.815 29.9089C243.815 29.362 243.754 28.8759 243.633 28.4505C243.511 28.0252 243.207 27.8125 242.721 27.8125C242.418 27.8125 242.114 27.9036 241.81 28.0859C241.506 28.2682 241.263 28.4809 241.081 28.724ZM216.38 30.5469C217.899 30.5469 219.449 30.5165 221.029 30.4557C222.609 30.3342 224.067 30.1215 225.404 29.8177C226.74 29.5139 227.834 29.0278 228.685 28.3594C229.536 27.691 229.961 26.8099 229.961 25.7161C229.839 24.3186 229.384 23.4375 228.594 23.0729C227.865 22.7083 227.075 22.526 226.224 22.526C224.887 22.526 223.581 22.7995 222.305 23.3464C221.089 23.8932 219.905 24.592 218.75 25.4427C217.656 26.2326 216.593 27.0833 215.56 27.9948C214.527 28.9062 213.585 29.6962 212.734 30.3646C213.342 30.4253 213.919 30.4861 214.466 30.5469C215.074 30.5469 215.712 30.5469 216.38 30.5469ZM292.487 99.6354C291.454 99.6354 290.421 99.5747 289.388 99.4531C288.355 99.3316 287.444 99.0582 286.654 98.6328C285.803 98.1467 285.135 97.4783 284.648 96.6276C284.162 95.7769 283.919 94.6528 283.919 93.2552C283.919 91.4323 284.345 89.4878 285.195 87.4219C285.985 85.2951 287.018 83.1684 288.294 81.0417C289.51 78.9149 290.816 76.849 292.214 74.8438C293.611 72.8385 294.887 71.0156 296.042 69.375C297.682 67.0052 299.293 64.7569 300.872 62.6302C302.513 60.5035 303.971 58.6198 305.247 56.9792C306.584 55.3385 307.648 54.0321 308.438 53.0599C309.288 52.0877 309.714 51.6016 309.714 51.6016C309.774 51.4193 309.987 51.3281 310.352 51.3281C310.898 51.3281 311.172 51.6016 311.172 52.1484C311.172 52.27 311.111 52.4523 310.99 52.6953C310.99 52.6953 310.564 53.1814 309.714 54.1536C308.924 55.1259 307.86 56.4323 306.523 58.0729C305.247 59.6528 303.789 61.5061 302.148 63.6328C300.569 65.7595 298.958 67.9774 297.318 70.2865C296.224 71.8056 295.009 73.5373 293.672 75.4818C292.335 77.4262 291.059 79.4314 289.844 81.4974C288.628 83.5634 287.626 85.6293 286.836 87.6953C285.985 89.7005 285.56 91.5538 285.56 93.2552C285.56 94.349 285.773 95.23 286.198 95.8984C286.623 96.5061 287.17 96.9618 287.839 97.2656C288.507 97.5694 289.236 97.7821 290.026 97.9036C290.877 97.9644 291.697 97.9948 292.487 97.9948C295.1 97.9948 297.956 97.4783 301.055 96.4453C304.154 95.3516 307.253 93.954 310.352 92.2526C313.511 90.4905 316.61 88.5156 319.648 86.3281C322.747 84.1406 325.603 81.8924 328.216 79.5833C328.459 79.4618 328.641 79.401 328.763 79.401C329.31 79.401 329.583 79.6745 329.583 80.2214C329.583 80.4644 329.492 80.6771 329.31 80.8594C326.576 83.1684 323.689 85.447 320.651 87.6953C317.674 89.9436 314.605 91.9488 311.445 93.7109C308.286 95.4731 305.095 96.901 301.875 97.9948C298.715 99.0885 295.586 99.6354 292.487 99.6354ZM322.93 39.9349C322.93 41.1502 322.504 42.2135 321.654 43.125C320.803 43.9757 319.77 44.401 318.555 44.401C317.339 44.401 316.276 43.9757 315.365 43.125C314.514 42.2135 314.089 41.1502 314.089 39.9349C314.089 38.7196 314.514 37.6866 315.365 36.8359C316.276 35.9852 317.339 35.5599 318.555 35.5599C319.77 35.5599 320.803 35.9852 321.654 36.8359C322.504 37.6866 322.93 38.7196 322.93 39.9349ZM317.962 100.456C318.752 98.2075 320.028 95.3212 321.79 91.7969C323.553 88.2118 325.77 84.1102 328.444 79.4922C331.118 74.8134 334.217 69.6484 337.741 63.9974C341.326 58.2856 345.367 52.1788 349.863 45.6771C352.962 41.2413 355.909 37.079 358.704 33.1901C361.5 29.2405 363.961 25.8073 366.087 22.8906C368.275 19.974 370.007 17.6649 371.283 15.9635C372.619 14.2621 373.288 13.3811 373.288 13.3203C373.409 13.1988 373.835 12.7127 374.564 11.862C375.354 10.9505 376.326 10.0087 377.48 9.03645C378.635 8.06423 379.941 7.18316 381.4 6.39323C382.858 5.60329 384.347 5.20833 385.866 5.20833C386.534 5.20833 387.263 5.36024 388.053 5.66406C388.843 5.96788 389.572 6.39323 390.241 6.9401C390.909 7.48698 391.456 8.18576 391.882 9.03645C392.307 9.82639 392.52 10.7075 392.52 11.6797C392.52 13.6849 391.669 16.1458 389.967 19.0625C388.327 21.9792 385.866 25.2604 382.585 28.9062C380.822 30.8507 379.03 32.7648 377.207 34.6484C375.384 36.4714 373.652 38.1424 372.012 39.6615C370.432 41.1806 369.065 42.4566 367.91 43.4896C366.756 44.5226 365.966 45.2214 365.54 45.5859C364.447 46.4974 362.836 47.8342 360.71 49.5964C358.583 51.3585 356.031 53.3941 353.053 55.7031C353.843 55.3993 354.907 55.0347 356.243 54.6094C357.641 54.184 359.13 53.7587 360.71 53.3333C362.35 52.908 363.991 52.5738 365.632 52.3307C367.333 52.0269 368.822 51.875 370.098 51.875C372.042 51.875 373.743 52.1181 375.202 52.6042C376.66 53.0903 377.875 53.7587 378.848 54.6094C379.82 55.4601 380.549 56.4627 381.035 57.6172C381.521 58.7109 381.764 59.8958 381.764 61.1719C381.764 63.1163 381.157 65 379.941 66.8229C378.726 68.6458 377.086 70.2561 375.02 71.6536C373.014 72.9905 370.645 74.0842 367.91 74.9349C365.176 75.7248 362.289 76.1198 359.251 76.1198C357.246 76.1198 355.362 75.9983 353.6 75.7552C351.899 75.4514 350.349 75.1172 348.952 74.7526C347.554 74.388 346.339 74.0234 345.306 73.6589C344.334 73.2943 343.574 72.9905 343.027 72.7474C342.724 73.7804 342.329 75.3602 341.842 77.487C341.417 79.6137 341.204 82.0443 341.204 84.7786C341.204 86.8446 341.447 88.7891 341.934 90.612C342.42 92.3741 343.149 93.9236 344.121 95.2604C345.154 96.5365 346.461 97.5694 348.04 98.3594C349.681 99.0885 351.656 99.4531 353.965 99.4531C355.788 99.4531 357.763 99.2101 359.889 98.724C362.016 98.2378 364.416 97.3264 367.09 95.9896C369.824 94.592 372.832 92.7083 376.113 90.3385C379.455 87.908 383.223 84.7786 387.415 80.9505C387.598 80.7682 387.78 80.6771 387.962 80.6771C388.509 80.6771 388.783 80.9505 388.783 81.4974C388.783 81.7405 388.691 81.9531 388.509 82.1354C384.499 85.7812 380.853 88.8194 377.572 91.25C374.29 93.6806 371.252 95.625 368.457 97.0833C365.662 98.5417 363.049 99.5443 360.618 100.091C358.249 100.699 355.97 101.003 353.783 101.003C349.225 101.003 345.701 99.605 343.21 96.8099C340.779 94.0148 339.564 89.9132 339.564 84.5052C339.564 82.9861 339.655 81.4366 339.837 79.8568C340.08 78.2769 340.323 76.8793 340.566 75.6641C340.87 74.388 341.144 73.355 341.387 72.5651C341.63 71.7752 341.751 71.3802 341.751 71.3802L342.025 70.5599L342.936 70.9245C342.936 70.9245 343.392 71.1068 344.303 71.4714C345.215 71.8359 346.4 72.2613 347.858 72.7474C349.377 73.1727 351.079 73.5677 352.962 73.9323C354.907 74.2969 356.942 74.4792 359.069 74.4792C361.682 74.4792 364.234 74.145 366.725 73.4766C369.277 72.8082 371.526 71.8967 373.47 70.7422C375.475 69.5269 377.086 68.1293 378.301 66.5495C379.516 64.9089 380.124 63.1163 380.124 61.1719C380.124 58.8021 379.212 56.9488 377.389 55.612C375.627 54.2144 373.197 53.5156 370.098 53.5156C368.092 53.5156 366.057 53.7283 363.991 54.1536C361.925 54.579 360.041 55.0651 358.34 55.612C356.638 56.0981 355.211 56.5842 354.056 57.0703C352.962 57.4957 352.415 57.7083 352.415 57.7083C349.985 58.7413 347.645 60.1389 345.397 61.901C343.21 63.6024 341.113 65.5165 339.108 67.6432C337.164 69.7092 335.371 71.9271 333.73 74.2969C332.09 76.6059 330.632 78.8542 329.355 81.0417C328.201 82.9861 327.168 84.8394 326.257 86.6016C325.284 88.303 324.434 89.9436 323.704 91.5234C322.914 93.1033 322.185 94.6832 321.517 96.263C320.788 97.7821 320.119 99.362 319.512 101.003L317.962 100.456ZM385.775 6.84895C384.438 6.84895 383.101 7.21354 381.764 7.9427C380.488 8.67187 379.334 9.49218 378.301 10.4036C377.268 11.3151 376.387 12.1658 375.658 12.9557C374.989 13.7457 374.625 14.2014 374.564 14.3229C374.564 14.3229 374.047 14.9913 373.014 16.3281C372.042 17.6649 370.705 19.5182 369.004 21.888C367.303 24.197 365.297 26.9314 362.988 30.0911C360.74 33.1901 358.34 36.5625 355.788 40.2083C353.236 43.7934 350.623 47.5608 347.949 51.5104C345.276 55.4601 342.663 59.3793 340.111 63.2682C343.088 61.1415 345.853 59.1059 348.405 57.1615C351.018 55.1562 353.357 53.3333 355.423 51.6927C357.55 50.0521 359.373 48.5937 360.892 47.3177C362.411 46.0417 363.596 45.0391 364.447 44.3099C364.993 43.8238 366.026 42.8819 367.546 41.4844C369.065 40.0868 370.796 38.4462 372.741 36.5625C374.746 34.6181 376.812 32.5217 378.939 30.2734C381.066 27.9644 383.01 25.6858 384.772 23.4375C386.534 21.1892 387.993 19.0625 389.147 17.0573C390.302 14.9913 390.879 13.2292 390.879 11.7708C390.879 10.9809 390.697 10.2821 390.332 9.67448C390.028 9.06684 389.603 8.58072 389.056 8.21614C388.57 7.7908 388.023 7.4566 387.415 7.21354C386.808 6.97048 386.261 6.84895 385.775 6.84895ZM391.608 99.6354C390.575 99.6354 389.542 99.5747 388.509 99.4531C387.476 99.3316 386.565 99.0582 385.775 98.6328C384.924 98.1467 384.256 97.4783 383.77 96.6276C383.283 95.7769 383.04 94.6528 383.04 93.2552C383.04 91.4323 383.466 89.4878 384.316 87.4219C385.106 85.2951 386.139 83.1684 387.415 81.0417C388.631 78.9149 389.937 76.849 391.335 74.8438C392.732 72.8385 394.008 71.0156 395.163 69.375C396.803 67.0052 398.414 64.7569 399.993 62.6302C401.634 60.5035 403.092 58.6198 404.368 56.9792C405.705 55.3385 406.769 54.0321 407.559 53.0599C408.409 52.0877 408.835 51.6016 408.835 51.6016C408.895 51.4193 409.108 51.3281 409.473 51.3281C410.02 51.3281 410.293 51.6016 410.293 52.1484C410.293 52.27 410.232 52.4523 410.111 52.6953C410.111 52.6953 409.685 53.1814 408.835 54.1536C408.045 55.1259 406.981 56.4323 405.645 58.0729C404.368 59.6528 402.91 61.5061 401.27 63.6328C399.69 65.7595 398.079 67.9774 396.439 70.2865C395.345 71.8056 394.13 73.5373 392.793 75.4818C391.456 77.4262 390.18 79.4314 388.965 81.4974C387.75 83.5634 386.747 85.6293 385.957 87.6953C385.106 89.7005 384.681 91.5538 384.681 93.2552C384.681 94.349 384.894 95.23 385.319 95.8984C385.744 96.5061 386.291 96.9618 386.96 97.2656C387.628 97.5694 388.357 97.7821 389.147 97.9036C389.998 97.9644 390.818 97.9948 391.608 97.9948C394.221 97.9948 397.077 97.4783 400.176 96.4453C403.275 95.3516 406.374 93.954 409.473 92.2526C412.632 90.4905 415.731 88.5156 418.77 86.3281C421.868 84.1406 424.724 81.8924 427.337 79.5833C427.58 79.4618 427.763 79.401 427.884 79.401C428.431 79.401 428.704 79.6745 428.704 80.2214C428.704 80.4644 428.613 80.6771 428.431 80.8594C425.697 83.1684 422.81 85.447 419.772 87.6953C416.795 89.9436 413.726 91.9488 410.566 93.7109C407.407 95.4731 404.217 96.901 400.996 97.9948C397.836 99.0885 394.707 99.6354 391.608 99.6354ZM422.051 39.9349C422.051 41.1502 421.625 42.2135 420.775 43.125C419.924 43.9757 418.891 44.401 417.676 44.401C416.461 44.401 415.397 43.9757 414.486 43.125C413.635 42.2135 413.21 41.1502 413.21 39.9349C413.21 38.7196 413.635 37.6866 414.486 36.8359C415.397 35.9852 416.461 35.5599 417.676 35.5599C418.891 35.5599 419.924 35.9852 420.775 36.8359C421.625 37.6866 422.051 38.7196 422.051 39.9349ZM558.451 113.672C557.357 112.639 556.476 111.515 555.807 110.299C555.139 109.084 554.622 107.839 554.258 106.562C553.954 105.286 553.741 104.01 553.62 102.734C553.559 101.458 553.529 100.213 553.529 98.9974C553.711 94.3186 554.379 89.5182 555.534 84.5964C556.688 79.6137 558.086 74.7222 559.727 69.9219C561.428 65.0608 563.312 60.3516 565.378 55.7943C567.444 51.237 569.479 47.0139 571.484 43.125C573.55 39.1753 575.495 35.6814 577.318 32.6432C579.201 29.5443 580.781 27.0529 582.057 25.1693C582.483 24.5009 582.878 23.7109 583.242 22.7995C583.668 21.888 583.88 21.0677 583.88 20.3385C583.88 19.6701 583.668 19.1233 583.242 18.6979C582.878 18.2726 582.179 18.0599 581.146 18.0599C578.898 18.0599 576.224 18.7587 573.125 20.1562C570.087 21.4931 566.775 23.3767 563.19 25.8073C559.605 28.2378 555.838 31.1545 551.888 34.5573C547.999 37.9601 544.08 41.697 540.13 45.7682C536.181 49.8394 532.261 54.184 528.372 58.8021C524.544 63.3594 520.959 68.0686 517.617 72.9297C517.07 77.3047 516.797 81.8316 516.797 86.5104C516.797 87.3611 516.797 88.1814 516.797 88.9714C516.858 89.7005 516.888 90.4905 516.888 91.3411C516.888 92.3741 516.797 93.6806 516.615 95.2604C516.493 96.7795 516.159 98.2682 515.612 99.7266C515.065 101.124 514.245 102.309 513.151 103.281C512.057 104.314 510.599 104.831 508.776 104.831C506.892 104.831 505.464 104.102 504.492 102.643C503.52 101.185 503.034 99.5747 503.034 97.8125C503.034 96.658 503.216 95.4731 503.581 94.2578C503.945 92.9818 504.401 91.7665 504.948 90.612C505.495 89.3967 506.072 88.2726 506.68 87.2396C507.287 86.1458 507.865 85.1736 508.411 84.3229C509.566 82.2569 510.781 80.2517 512.057 78.3073C513.333 76.3021 514.64 74.2969 515.977 72.2917C516.523 67.8559 517.313 63.572 518.346 59.4401C519.379 55.3082 520.534 51.2977 521.81 47.4089C523.086 43.52 524.453 39.7526 525.911 36.1068C527.431 32.4609 528.98 28.8455 530.56 25.2604C531.107 23.9844 531.471 22.921 531.654 22.0703C531.897 21.1589 532.018 20.4297 532.018 19.8828C531.957 18.9714 531.745 18.3637 531.38 18.0599C531.016 17.6953 530.438 17.513 529.648 17.513C526.185 17.513 522.569 18.7891 518.802 21.3411C515.035 23.8325 511.146 27.1441 507.135 31.276C503.125 35.408 499.054 40.1172 494.922 45.4036C490.79 50.6293 486.658 55.9766 482.526 61.4453C478.394 66.8533 474.293 72.1398 470.221 77.3047C466.211 82.4696 462.292 87.0269 458.464 90.9766C453.359 96.2023 448.468 100.091 443.789 102.643C439.11 105.195 434.249 106.471 429.206 106.471C426.654 106.35 424.497 105.833 422.734 104.922C420.911 104.071 419.453 102.977 418.359 101.641C417.205 100.365 416.385 98.9062 415.898 97.2656C415.412 95.625 415.169 93.9844 415.169 92.3438C415.169 91.6146 415.26 90.6727 415.443 89.5182C415.625 88.3637 415.868 87.2396 416.172 86.1458C416.476 85.0521 416.84 84.1102 417.266 83.3203C417.691 82.5304 418.147 82.1354 418.633 82.1354C419.18 82.1354 419.453 82.4392 419.453 83.0469C419.453 83.2292 419.423 83.3507 419.362 83.4115C418.572 84.566 417.964 85.9332 417.539 87.513C417.053 89.0929 416.81 90.7031 416.81 92.3438C416.81 93.8628 417.053 95.3819 417.539 96.901C417.964 98.3594 418.724 99.6658 419.818 100.82C420.851 102.036 422.218 103.008 423.919 103.737C425.621 104.466 427.747 104.831 430.299 104.831C433.824 104.831 437.348 104.01 440.872 102.37C444.397 100.729 448.012 98.329 451.719 95.1693C455.365 92.0095 459.162 88.1207 463.112 83.5026C467.001 78.8845 471.133 73.6285 475.508 67.7344C478.485 63.724 481.523 59.6528 484.622 55.5208C487.721 51.3281 490.851 47.3177 494.01 43.4896C497.17 39.6615 500.299 36.0764 503.398 32.7344C506.497 29.3316 509.566 26.3845 512.604 23.8932C515.642 21.4019 518.589 19.4575 521.445 18.0599C524.301 16.6016 527.036 15.8724 529.648 15.8724C531.046 15.8724 532.049 16.2674 532.656 17.0573C533.325 17.7865 533.659 18.7283 533.659 19.8828C533.659 20.612 533.537 21.4627 533.294 22.4349C533.051 23.4071 532.626 24.592 532.018 25.9896C530.56 29.3316 529.132 32.704 527.734 36.1068C526.398 39.5095 525.091 43.0035 523.815 46.5885C522.6 50.1736 521.476 53.8498 520.443 57.6172C519.47 61.3845 518.681 65.3038 518.073 69.375C521.536 64.5747 525.182 59.9566 529.01 55.5208C532.839 51.0243 536.697 46.8316 540.586 42.9427C544.536 38.9931 548.424 35.408 552.253 32.1875C556.141 28.9062 559.818 26.1111 563.281 23.8021C566.806 21.4323 570.087 19.6094 573.125 18.3333C576.224 17.0573 578.898 16.4193 581.146 16.4193C582.483 16.5408 583.546 16.875 584.336 17.4219C585.187 17.9688 585.612 18.8802 585.612 20.1562C585.612 21.3715 585.035 23.0122 583.88 25.0781C582.786 27.1441 581.359 29.6658 579.596 32.6432C577.834 35.6207 575.829 39.0842 573.581 43.0339C571.393 46.9835 569.206 51.4193 567.018 56.3411C565.56 59.6832 564.132 63.1467 562.734 66.7318C561.398 70.3168 560.182 73.9323 559.089 77.5781C557.995 81.224 557.083 84.8698 556.354 88.5156C555.686 92.1007 555.291 95.625 555.169 99.0885V99.1797V100.365C555.169 102.431 555.443 104.527 555.99 106.654C556.597 108.841 557.782 110.786 559.544 112.487C561.063 113.885 562.765 114.887 564.648 115.495C566.593 116.163 568.507 116.497 570.391 116.497C572.639 116.497 574.614 116.072 576.315 115.221C578.077 114.431 579.536 113.52 580.69 112.487C581.845 111.515 582.726 110.603 583.333 109.753C583.941 108.902 584.275 108.416 584.336 108.294C584.457 107.99 584.67 107.839 584.974 107.839C585.278 107.839 585.521 107.93 585.703 108.112C585.885 108.294 585.977 108.477 585.977 108.659C585.977 108.841 585.916 108.993 585.794 109.115C585.734 109.175 585.369 109.661 584.701 110.573C584.032 111.545 583.06 112.578 581.784 113.672C580.508 114.826 578.928 115.859 577.044 116.771C575.161 117.682 572.943 118.138 570.391 118.138C565.59 118.138 561.61 116.649 558.451 113.672ZM508.776 103.19C510.174 103.19 511.298 102.765 512.148 101.914C512.999 101.124 513.637 100.122 514.062 98.9062C514.549 97.691 514.852 96.4149 514.974 95.0781C515.156 93.6806 515.247 92.4349 515.247 91.3411C515.247 90.4905 515.217 89.7005 515.156 88.9714C515.156 88.2422 515.156 87.5434 515.156 86.875C515.156 84.9306 515.187 83.138 515.247 81.4974C515.369 79.796 515.49 77.9123 515.612 75.8464C513.303 79.2491 511.419 82.2266 509.961 84.7786C508.563 87.27 507.47 89.4271 506.68 91.25C505.89 93.0122 505.343 94.4401 505.039 95.5339C504.735 96.5668 504.583 97.3264 504.583 97.8125C504.583 99.0885 504.918 100.304 505.586 101.458C506.254 102.613 507.318 103.19 508.776 103.19ZM576.862 99.6354C575.829 99.6354 574.796 99.5747 573.763 99.4531C572.73 99.3316 571.819 99.0582 571.029 98.6328C570.178 98.1467 569.51 97.4783 569.023 96.6276C568.537 95.7769 568.294 94.6528 568.294 93.2552C568.294 91.4323 568.72 89.4878 569.57 87.4219C570.36 85.2951 571.393 83.1684 572.669 81.0417C573.885 78.9149 575.191 76.849 576.589 74.8438C577.986 72.8385 579.262 71.0156 580.417 69.375C582.057 67.0052 583.668 64.7569 585.247 62.6302C586.888 60.5035 588.346 58.6198 589.622 56.9792C590.959 55.3385 592.023 54.0321 592.812 53.0599C593.663 52.0877 594.089 51.6016 594.089 51.6016C594.149 51.4193 594.362 51.3281 594.727 51.3281C595.273 51.3281 595.547 51.6016 595.547 52.1484C595.547 52.27 595.486 52.4523 595.365 52.6953C595.365 52.6953 594.939 53.1814 594.089 54.1536C593.299 55.1259 592.235 56.4323 590.898 58.0729C589.622 59.6528 588.164 61.5061 586.523 63.6328C584.944 65.7595 583.333 67.9774 581.693 70.2865C580.599 71.8056 579.384 73.5373 578.047 75.4818C576.71 77.4262 575.434 79.4314 574.219 81.4974C573.003 83.5634 572.001 85.6293 571.211 87.6953C570.36 89.7005 569.935 91.5538 569.935 93.2552C569.935 94.349 570.148 95.23 570.573 95.8984C570.998 96.5061 571.545 96.9618 572.214 97.2656C572.882 97.5694 573.611 97.7821 574.401 97.9036C575.252 97.9644 576.072 97.9948 576.862 97.9948C579.475 97.9948 582.331 97.4783 585.43 96.4453C588.529 95.3516 591.628 93.954 594.727 92.2526C597.886 90.4905 600.985 88.5156 604.023 86.3281C607.122 84.1406 609.978 81.8924 612.591 79.5833C612.834 79.4618 613.016 79.401 613.138 79.401C613.685 79.401 613.958 79.6745 613.958 80.2214C613.958 80.4644 613.867 80.6771 613.685 80.8594C610.951 83.1684 608.064 85.447 605.026 87.6953C602.049 89.9436 598.98 91.9488 595.82 93.7109C592.661 95.4731 589.47 96.901 586.25 97.9948C583.09 99.0885 579.961 99.6354 576.862 99.6354ZM607.305 39.9349C607.305 41.1502 606.879 42.2135 606.029 43.125C605.178 43.9757 604.145 44.401 602.93 44.401C601.714 44.401 600.651 43.9757 599.74 43.125C598.889 42.2135 598.464 41.1502 598.464 39.9349C598.464 38.7196 598.889 37.6866 599.74 36.8359C600.651 35.9852 601.714 35.5599 602.93 35.5599C604.145 35.5599 605.178 35.9852 606.029 36.8359C606.879 37.6866 607.305 38.7196 607.305 39.9349ZM627.539 100.456C621.949 100.456 617.665 99.5139 614.688 97.6302C611.771 95.6858 610.312 92.9818 610.312 89.5182C610.312 86.48 611.315 83.1684 613.32 79.5833C615.386 75.9375 617.999 72.4436 621.159 69.1016C624.379 65.7595 627.904 62.8429 631.732 60.3516C635.621 57.7995 639.388 56.0981 643.034 55.2474C644.371 54.9436 645.616 54.7309 646.771 54.6094C647.925 54.4271 648.989 54.3359 649.961 54.3359C652.695 54.3359 654.761 54.974 656.159 56.25C657.556 57.526 658.255 59.1363 658.255 61.0807C658.255 62.1137 658.073 63.1467 657.708 64.1797C657.405 65.2127 657.01 65.7292 656.523 65.7292C655.977 65.7292 655.703 65.4861 655.703 65C655.703 64.5747 655.855 64.0278 656.159 63.3594C656.463 62.691 656.615 61.9618 656.615 61.1719C656.615 59.592 656.037 58.3464 654.883 57.4349C653.789 56.4627 652.088 55.9766 649.779 55.9766C647.652 55.9766 645.373 56.3411 642.943 57.0703C640.512 57.7387 638.051 58.7413 635.56 60.0781C633.069 61.3542 630.577 62.9644 628.086 64.9089C625.655 66.7925 623.346 68.9497 621.159 71.3802C618.242 74.6615 615.994 77.8819 614.414 81.0417C612.834 84.2014 612.044 87.0269 612.044 89.5182C612.044 91.5842 612.591 93.2552 613.685 94.5312C614.839 95.7465 616.207 96.6884 617.786 97.3568C619.427 97.9644 621.128 98.3594 622.891 98.5417C624.714 98.724 626.293 98.8151 627.63 98.8151C628.481 98.8151 629.18 98.8151 629.727 98.8151C630.273 98.7543 630.577 98.724 630.638 98.724C630.638 98.724 631.003 98.6936 631.732 98.6328C632.522 98.572 633.555 98.4505 634.831 98.2682C636.168 98.0859 637.717 97.8429 639.479 97.5391C641.241 97.2352 643.155 96.8099 645.221 96.263C647.166 95.7769 649.353 95.1085 651.784 94.2578C654.214 93.3464 656.766 92.2526 659.44 90.9766C662.114 89.6398 664.878 88.0599 667.734 86.237C670.59 84.4141 673.446 82.3177 676.302 79.9479C676.545 79.8264 676.727 79.7656 676.849 79.7656C677.396 79.7656 677.669 80.0391 677.669 80.5859C677.669 80.9505 677.578 81.1632 677.396 81.224C672.717 85.0521 667.674 88.4245 662.266 91.3411C656.918 94.2578 651.359 96.4453 645.586 97.9036C641.454 98.9366 638.021 99.605 635.286 99.9089C632.552 100.213 631.033 100.365 630.729 100.365C630.608 100.365 630.243 100.365 629.635 100.365C629.089 100.425 628.39 100.456 627.539 100.456ZM701.048 103.008C698.618 102.886 696.795 102.157 695.579 100.82C694.364 99.4835 693.757 97.7517 693.757 95.625C693.757 93.316 694.486 90.6727 695.944 87.6953C697.402 84.7179 699.134 81.7101 701.139 78.6719C703.145 75.6337 705.211 72.7474 707.337 70.013C709.464 67.2179 711.196 64.8785 712.533 62.9948C712.836 62.5087 713.11 62.0226 713.353 61.5365C713.596 61.0503 713.717 60.5946 713.717 60.1693C713.717 59.6224 713.505 59.2274 713.079 58.9844C712.715 58.6806 712.259 58.4679 711.712 58.3464C711.165 58.1641 710.588 58.0729 709.98 58.0729C709.434 58.0122 709.008 57.9818 708.704 57.9818C708.583 57.9818 708.127 57.9514 707.337 57.8906C706.608 57.8299 705.697 57.7083 704.603 57.526C703.509 57.3437 702.324 57.1007 701.048 56.7969C699.833 56.4323 698.739 55.9766 697.767 55.4297C697.524 55.7943 697.342 56.0981 697.22 56.3411C694.486 61.02 691.478 65.4253 688.197 69.5573C684.976 73.6892 681.452 77.487 677.624 80.9505C677.502 81.072 677.32 81.1328 677.077 81.1328C676.53 81.1328 676.257 80.8594 676.257 80.3125C676.257 80.0694 676.348 79.8568 676.53 79.6745C680.601 76.0286 684.156 72.1398 687.194 68.0078C690.293 63.8759 693.149 59.6832 695.762 55.4297C695.883 55.2474 696.005 55.0651 696.126 54.8828C696.248 54.6398 696.309 54.4878 696.309 54.4271C695.397 53.7587 694.729 52.9991 694.303 52.1484C693.939 51.237 693.757 50.3255 693.757 49.4141C693.757 48.5026 693.878 47.7734 694.121 47.2266C694.425 46.6797 694.759 46.2847 695.124 46.0417C695.488 45.7378 695.853 45.5556 696.217 45.4948C696.582 45.434 696.825 45.4036 696.947 45.4036C697.737 45.4036 698.344 45.5556 698.77 45.8594C699.195 46.1024 699.499 46.4366 699.681 46.862C699.863 47.2266 699.954 47.5911 699.954 47.9557C700.015 48.3203 700.046 48.5937 700.046 48.776C700.046 50.1736 699.529 51.9054 698.496 53.9714C699.225 54.3967 700.076 54.7613 701.048 55.0651C702.081 55.3689 703.084 55.612 704.056 55.7943C705.028 55.9766 705.94 56.1285 706.79 56.25C707.641 56.3108 708.309 56.3411 708.796 56.3411C709.16 56.3411 709.707 56.3715 710.436 56.4323C711.165 56.4931 711.895 56.645 712.624 56.888C713.353 57.0703 713.991 57.4349 714.538 57.9818C715.085 58.4679 715.358 59.1667 715.358 60.0781C715.358 60.9896 714.872 62.2656 713.9 63.9062C712.928 65.4861 711.682 67.2786 710.163 69.2839C708.704 71.2891 707.094 73.4462 705.332 75.7552C703.631 78.0642 702.02 80.4036 700.501 82.7734C699.043 85.0825 697.828 87.3611 696.855 89.6094C695.883 91.8576 695.397 93.9236 695.397 95.8073C695.397 99.5139 697.615 101.367 702.051 101.367C703.57 101.367 705.484 101.033 707.793 100.365C710.102 99.6962 712.624 98.7847 715.358 97.6302C718.092 96.4757 720.948 95.1085 723.926 93.5286C726.964 91.9488 729.941 90.2778 732.858 88.5156C732.98 88.3941 733.132 88.3333 733.314 88.3333C733.496 88.3333 733.648 88.4245 733.77 88.6068C733.952 88.7891 734.043 88.9714 734.043 89.1536C734.043 89.4575 733.921 89.7005 733.678 89.8828C730.519 91.8273 727.359 93.6198 724.199 95.2604C721.1 96.8403 718.123 98.2075 715.267 99.362C712.411 100.516 709.768 101.398 707.337 102.005C704.907 102.674 702.81 103.008 701.048 103.008ZM695.579 48.5938C695.519 48.7153 695.488 48.9279 695.488 49.2318C695.488 49.9002 695.64 50.6293 695.944 51.4193C696.248 52.1484 696.643 52.6649 697.129 52.9688C697.615 51.9358 697.949 51.1155 698.132 50.5078C698.314 49.8394 698.405 49.2925 698.405 48.8672C698.405 48.3811 698.283 47.9557 698.04 47.5911C697.797 47.2266 697.402 47.0443 696.855 47.0443C696.187 47.105 695.762 47.6215 695.579 48.5938ZM746.53 100.911C744.039 100.79 741.912 100.304 740.15 99.4531C738.448 98.6024 737.051 97.5391 735.957 96.263C734.924 94.987 734.164 93.5894 733.678 92.0703C733.192 90.4905 732.949 88.8802 732.949 87.2396C732.949 84.8698 733.344 82.6215 734.134 80.4948C734.924 78.3073 735.896 76.2717 737.051 74.388C738.266 72.4436 739.572 70.6814 740.97 69.1016C742.368 67.4609 743.704 66.033 744.98 64.8177C750.145 59.8351 755.401 56.1285 760.749 53.6979C766.096 51.2674 770.927 50.0521 775.241 50.0521C777.55 50.0521 779.525 50.3255 781.165 50.8724C782.806 51.4193 784.173 52.0269 785.267 52.6953C786.361 53.303 787.151 53.8802 787.637 54.4271C788.184 54.974 788.487 55.2778 788.548 55.3385C788.609 55.4601 788.639 55.6424 788.639 55.8854C788.639 56.1285 788.609 56.2804 788.548 56.3411C789.581 56.5842 790.341 57.1311 790.827 57.9818C791.313 58.8325 791.556 59.7743 791.556 60.8073C791.556 63.1163 790.675 65.9418 788.913 69.2839C787.151 72.6259 784.355 76.3932 780.527 80.5859C782.472 82.5911 784.659 84.0799 787.09 85.0521C789.52 85.9635 792.103 86.4193 794.837 86.4193C797.875 86.4193 800.944 85.842 804.043 84.6875C807.142 83.533 810.089 81.862 812.884 79.6745C813.006 79.553 813.158 79.4922 813.34 79.4922C813.947 79.4922 814.251 79.796 814.251 80.4036C814.251 80.7075 814.16 80.8898 813.978 80.9505C811 83.2595 807.901 85.0217 804.681 86.237C801.461 87.4523 798.21 88.0599 794.928 88.0599C791.951 88.0599 789.095 87.5738 786.361 86.6016C783.687 85.5686 781.378 83.9887 779.434 81.862C776.821 84.7786 774.117 87.4219 771.322 89.7917C768.587 92.1007 765.822 94.0755 763.027 95.7161C760.232 97.3568 757.498 98.6328 754.824 99.5443C752.211 100.456 749.75 100.911 747.441 100.911H746.53ZM775.514 51.6016C773.57 51.6016 771.443 51.875 769.134 52.4219C766.825 52.9688 764.425 53.7891 761.934 54.8828C759.503 55.9766 756.708 57.6172 753.548 59.8047C750.449 61.9922 747.472 64.5443 744.616 67.4609C741.821 70.3776 739.451 73.5373 737.507 76.9401C735.562 80.3429 734.59 83.776 734.59 87.2396C734.59 88.6979 734.803 90.1562 735.228 91.6146C735.653 93.0729 736.352 94.3793 737.324 95.5339C738.357 96.6276 739.694 97.5391 741.335 98.2682C743.036 98.9366 745.102 99.2708 747.533 99.2708C751.847 99.2708 756.738 97.6302 762.207 94.349C767.676 91.0677 773.114 86.4193 778.522 80.4036C777.732 79.1884 777.155 77.8212 776.79 76.3021C776.487 74.7222 776.335 73.112 776.335 71.4714C776.335 69.4661 776.578 67.5521 777.064 65.7292C777.611 63.8455 778.34 62.2049 779.251 60.8073C780.163 59.349 781.287 58.2248 782.624 57.4349C783.961 56.5842 785.449 56.1589 787.09 56.1589C786.847 55.855 786.421 55.4601 785.814 54.974C785.267 54.4271 784.507 53.9106 783.535 53.4245C782.624 52.9384 781.5 52.513 780.163 52.1484C778.826 51.7839 777.276 51.6016 775.514 51.6016ZM787.09 57.7995C784.538 57.8602 782.381 59.1059 780.618 61.5365C778.856 63.9062 777.975 67.1875 777.975 71.3802C777.975 72.7778 778.097 74.145 778.34 75.4818C778.583 76.7578 779.008 77.9731 779.616 79.1276C782.715 75.4818 785.206 72.079 787.09 68.9193C788.974 65.7595 789.915 63.0556 789.915 60.8073C789.915 59.8958 789.703 59.1667 789.277 58.6198C788.852 58.0729 788.123 57.7995 787.09 57.7995ZM822.044 97.9948C821.558 97.0226 821.315 95.9592 821.315 94.8047C821.315 92.0703 822.591 89.4271 825.143 86.875C827.756 84.2622 832.253 81.5885 838.633 78.8542C838.937 78.8542 839.089 78.7326 839.089 78.4896C839.089 78.2465 839.089 78.0339 839.089 77.8516C839.089 74.7526 838.906 71.8056 838.542 69.0104C838.238 66.1545 838.025 63.2682 837.904 60.3516C835.169 62.6606 832.435 65 829.701 67.3698C826.966 69.6788 824.475 71.8056 822.227 73.75C820.039 75.6337 818.216 77.2135 816.758 78.4896C815.36 79.7049 814.661 80.3125 814.661 80.3125C814.54 80.434 814.358 80.4948 814.115 80.4948C813.568 80.4948 813.294 80.2517 813.294 79.7656C813.294 79.5226 813.385 79.3099 813.568 79.1276C813.568 79.0668 814.297 78.3984 815.755 77.1224C817.274 75.7856 819.188 74.1146 821.497 72.1094C823.867 70.0434 826.48 67.7951 829.336 65.3646C832.192 62.934 835.017 60.5642 837.812 58.2552C837.812 53.3333 838.451 49.8394 839.727 47.7734C841.003 45.6467 842.552 44.5833 844.375 44.5833C845.53 44.5833 846.411 44.9479 847.018 45.6771C847.687 46.4062 848.021 47.2873 848.021 48.3203C848.021 49.4141 847.687 50.5078 847.018 51.6016C846.411 52.6345 845.651 53.6068 844.74 54.5182C843.828 55.4297 842.886 56.2804 841.914 57.0703C840.942 57.7995 840.122 58.4375 839.453 58.9844C839.453 62.2656 839.666 65.3342 840.091 68.1901C840.516 70.9852 840.729 73.8108 840.729 76.6667V77.9427C842.248 77.3351 843.676 76.7882 845.013 76.3021C846.411 75.7552 847.626 75.3299 848.659 75.026C849.874 74.6615 850.998 74.3273 852.031 74.0234C853.854 73.4766 855.981 72.9905 858.411 72.5651C860.903 72.1398 863.394 71.9271 865.885 71.9271C866.372 71.9271 866.888 71.9271 867.435 71.9271C868.043 71.9271 868.346 72.2005 868.346 72.7474C868.346 73.2943 868.073 73.5677 867.526 73.5677H865.977C863.546 73.5677 861.115 73.7804 858.685 74.2057C856.315 74.6311 854.249 75.0868 852.487 75.5729L848.932 76.7578C847.839 77.1224 846.593 77.5477 845.195 78.0339C843.798 78.52 842.309 79.0972 840.729 79.7656C840.729 87.1181 839.605 92.6172 837.357 96.263C835.169 99.8481 832.344 101.641 828.88 101.641C827.483 101.641 826.146 101.337 824.87 100.729C823.594 100.122 822.652 99.2101 822.044 97.9948ZM839.089 80.4036C833.559 82.7127 829.488 85.0521 826.875 87.4219C824.262 89.7917 822.956 92.283 822.956 94.8958C822.956 96.7187 823.563 98.0556 824.779 98.9062C826.055 99.6962 827.422 100.091 828.88 100.091C830.885 100.091 832.526 99.4835 833.802 98.2682C835.078 97.053 836.081 95.5035 836.81 93.6198C837.6 91.6753 838.147 89.5486 838.451 87.2396C838.754 84.8698 838.967 82.5911 839.089 80.4036ZM842.096 47.2266C841.367 47.895 840.76 49.0495 840.273 50.6901C839.848 52.3307 839.575 54.4271 839.453 56.9792C840 56.6146 840.668 56.1589 841.458 55.612C842.248 55.0043 843.008 54.3359 843.737 53.6068C844.466 52.8168 845.074 51.9661 845.56 51.0547C846.107 50.1432 846.38 49.171 846.38 48.138C846.38 47.9557 846.259 47.5911 846.016 47.0443C845.833 46.4974 845.286 46.224 844.375 46.224C843.646 46.224 842.886 46.5582 842.096 47.2266ZM866.296 99.6354C865.263 99.6354 864.23 99.5747 863.197 99.4531C862.164 99.3316 861.252 99.0582 860.462 98.6328C859.612 98.1467 858.943 97.4783 858.457 96.6276C857.971 95.7769 857.728 94.6528 857.728 93.2552C857.728 91.4323 858.153 89.4878 859.004 87.4219C859.794 85.2951 860.827 83.1684 862.103 81.0417C863.318 78.9149 864.625 76.849 866.022 74.8438C867.42 72.8385 868.696 71.0156 869.85 69.375C871.491 67.0052 873.101 64.7569 874.681 62.6302C876.322 60.5035 877.78 58.6198 879.056 56.9792C880.393 55.3385 881.456 54.0321 882.246 53.0599C883.097 52.0877 883.522 51.6016 883.522 51.6016C883.583 51.4193 883.796 51.3281 884.16 51.3281C884.707 51.3281 884.98 51.6016 884.98 52.1484C884.98 52.27 884.92 52.4523 884.798 52.6953C884.798 52.6953 884.373 53.1814 883.522 54.1536C882.732 55.1259 881.669 56.4323 880.332 58.0729C879.056 59.6528 877.598 61.5061 875.957 63.6328C874.377 65.7595 872.767 67.9774 871.126 70.2865C870.033 71.8056 868.817 73.5373 867.48 75.4818C866.144 77.4262 864.868 79.4314 863.652 81.4974C862.437 83.5634 861.434 85.6293 860.645 87.6953C859.794 89.7005 859.368 91.5538 859.368 93.2552C859.368 94.349 859.581 95.23 860.007 95.8984C860.432 96.5061 860.979 96.9618 861.647 97.2656C862.316 97.5694 863.045 97.7821 863.835 97.9036C864.685 97.9644 865.506 97.9948 866.296 97.9948C868.908 97.9948 871.764 97.4783 874.863 96.4453C877.962 95.3516 881.061 93.954 884.16 92.2526C887.32 90.4905 890.419 88.5156 893.457 86.3281C896.556 84.1406 899.412 81.8924 902.025 79.5833C902.268 79.4618 902.45 79.401 902.572 79.401C903.118 79.401 903.392 79.6745 903.392 80.2214C903.392 80.4644 903.301 80.6771 903.118 80.8594C900.384 83.1684 897.498 85.447 894.46 87.6953C891.482 89.9436 888.414 91.9488 885.254 93.7109C882.094 95.4731 878.904 96.901 875.684 97.9948C872.524 99.0885 869.395 99.6354 866.296 99.6354ZM896.738 39.9349C896.738 41.1502 896.313 42.2135 895.462 43.125C894.612 43.9757 893.579 44.401 892.363 44.401C891.148 44.401 890.085 43.9757 889.173 43.125C888.322 42.2135 887.897 41.1502 887.897 39.9349C887.897 38.7196 888.322 37.6866 889.173 36.8359C890.085 35.9852 891.148 35.5599 892.363 35.5599C893.579 35.5599 894.612 35.9852 895.462 36.8359C896.313 37.6866 896.738 38.7196 896.738 39.9349ZM901.569 79.9479C903.21 78.4896 904.941 77.0009 906.764 75.4818C908.648 73.9019 910.532 72.322 912.415 70.7422C914.36 69.1016 916.274 67.5217 918.158 66.0026C920.041 64.4227 921.864 62.934 923.626 61.5365C927.697 58.1944 931.769 54.9132 935.84 51.6927C935.111 51.6927 933.865 51.6623 932.103 51.6016C930.401 51.5408 928.518 51.4497 926.452 51.3281C924.447 51.2066 922.472 51.0851 920.527 50.9635C918.583 50.842 917.064 50.7205 915.97 50.599C915.423 50.4774 915.15 50.1736 915.15 49.6875C915.15 49.2014 915.423 48.9583 915.97 48.9583C916.092 48.9583 916.243 48.9583 916.426 48.9583C916.669 48.9583 917.033 48.9887 917.52 49.0495C924.082 49.5964 930.462 49.9609 936.66 50.1432C940.731 42.487 944.468 35.651 947.871 29.6354C951.274 23.6198 954.251 18.546 956.803 14.4141C959.416 10.2214 961.604 7.03125 963.366 4.84375C965.128 2.65625 966.434 1.5625 967.285 1.5625C967.528 1.5625 967.862 1.65365 968.288 1.83594C968.774 2.01823 969.017 2.5651 969.017 3.47656C969.017 4.32726 968.865 5.29948 968.561 6.39323C968.257 7.42621 968.014 8.18576 967.832 8.67188C966.131 13.1076 963.974 17.4523 961.361 21.7057C958.809 25.9592 956.165 29.9392 953.431 33.6458C950.697 37.2917 948.084 40.5729 945.592 43.4896C943.101 46.3455 941.126 48.5938 939.668 50.2344C940.944 50.2344 942.19 50.2648 943.405 50.3255C944.681 50.3255 945.927 50.3255 947.142 50.3255C951.456 50.3255 955.679 50.2344 959.811 50.0521C960.358 50.0521 960.632 50.3255 960.632 50.8724C960.632 51.237 960.115 51.5104 959.082 51.6927C958.049 51.8142 956.803 51.9054 955.345 51.9661C953.947 51.9661 952.52 51.9661 951.061 51.9661C949.603 51.9661 948.448 51.9661 947.598 51.9661C946.018 51.9661 944.438 51.9661 942.858 51.9661C941.339 51.9054 939.789 51.8446 938.21 51.7839C937.906 52.0877 937.663 52.3611 937.48 52.6042C937.298 52.7865 937.116 52.9687 936.934 53.151C934.564 57.6476 932.316 61.9314 930.189 66.0026C928.062 70.0738 926.209 73.6589 924.629 76.7578C923.049 79.8568 921.773 82.3481 920.801 84.2318C919.889 86.1155 919.403 87.0877 919.342 87.1484C918.917 87.9384 918.583 88.7283 918.34 89.5182C918.036 90.1866 917.793 90.9462 917.611 91.7969C917.428 92.6476 917.337 93.4983 917.337 94.349C917.337 98.0556 919.677 99.9089 924.355 99.9089C927.09 99.9089 929.855 99.5139 932.65 98.724C935.506 97.8733 938.301 96.8099 941.035 95.5339C943.77 94.2578 946.382 92.8299 948.874 91.25C951.365 89.6701 953.644 88.1207 955.71 86.6016C957.836 85.0217 959.659 83.5937 961.178 82.3177C962.758 80.9809 963.974 79.9479 964.824 79.2188C965.067 79.0972 965.25 79.0365 965.371 79.0365C965.918 79.0365 966.191 79.3099 966.191 79.8568C966.191 80.0998 966.1 80.3125 965.918 80.4948C962.454 83.5937 958.839 86.4497 955.072 89.0625C951.365 91.6146 947.719 93.8325 944.134 95.7161C940.549 97.5391 937.055 98.967 933.652 100C930.31 101.033 927.272 101.549 924.538 101.549C921.56 101.549 919.342 100.881 917.884 99.5443C916.426 98.2075 915.697 96.4453 915.697 94.2578C915.697 93.3464 915.788 92.4349 915.97 91.5234C916.213 90.612 916.456 89.7917 916.699 89.0625C917.003 88.3333 917.246 87.7561 917.428 87.3307C917.671 86.8446 917.823 86.5408 917.884 86.4193C917.945 86.2977 918.431 85.3255 919.342 83.5026C920.315 81.6797 921.591 79.3099 923.171 76.3932C924.75 73.4158 926.543 70.0434 928.548 66.276C930.553 62.4479 932.619 58.5286 934.746 54.5182C934.685 54.579 933.926 55.1866 932.467 56.3411C931.07 57.4957 929.277 58.954 927.09 60.7161C924.902 62.4783 922.502 64.4227 919.889 66.5495C917.276 68.6762 914.785 70.7422 912.415 72.7474C910.046 74.6918 907.949 76.454 906.126 78.0339C904.364 79.553 903.21 80.6163 902.663 81.224C902.42 81.467 902.177 81.5885 901.934 81.5885C901.63 81.5885 901.417 81.4974 901.296 81.3151C901.174 81.1328 901.113 80.9505 901.113 80.7682C901.113 80.4644 901.265 80.191 901.569 79.9479ZM940.124 47.2266C941.521 45.6467 943.466 43.3984 945.957 40.4818C948.509 37.5651 951.122 34.2535 953.796 30.5469C956.469 26.8403 959.021 22.8906 961.452 18.6979C963.943 14.4444 965.827 10.191 967.103 5.9375C967.285 5.39062 967.376 4.9349 967.376 4.57031C967.437 4.20573 967.467 3.90191 967.467 3.65885C967.467 3.35503 967.407 3.20312 967.285 3.20312C966.617 3.20312 965.341 4.57031 963.457 7.30469C961.573 10.0391 959.325 13.5634 956.712 17.8776C954.16 22.1311 951.426 26.8707 948.509 32.0964C945.592 37.2613 942.797 42.3047 940.124 47.2266ZM969.108 98.8151C966.981 97.6606 965.493 96.1415 964.642 94.2578C963.73 92.3741 963.275 90.3082 963.275 88.0599C963.275 86.2977 963.518 84.4748 964.004 82.5911C964.429 80.7075 965.037 78.9149 965.827 77.2135C966.617 75.4514 967.498 73.8411 968.47 72.3828C969.442 70.8637 970.445 69.5573 971.478 68.4635C970.506 67.9774 969.776 67.6128 969.29 67.3698C968.865 67.1267 968.592 66.9444 968.47 66.8229C968.349 66.6406 968.288 66.5191 968.288 66.4583C968.349 66.3976 968.379 66.3064 968.379 66.1849C968.379 65.638 968.652 65.3646 969.199 65.3646C969.442 65.3646 969.533 65.3646 969.473 65.3646C969.412 65.3038 969.412 65.3342 969.473 65.4557C969.533 65.5165 969.746 65.6684 970.111 65.9115C970.536 66.1545 971.387 66.5799 972.663 67.1875C977.767 61.7188 983.084 57.3741 988.613 54.1536C994.204 50.9332 999.581 49.3229 1004.75 49.3229C1006.51 49.3229 1008.21 49.566 1009.85 50.0521C1011.49 50.5382 1012.95 51.237 1014.23 52.1484C1015.5 52.9991 1016.5 54.0625 1017.23 55.3385C1018.02 56.5538 1018.42 57.921 1018.42 59.4401C1018.42 61.9922 1017.63 64.2404 1016.05 66.1849C1014.53 68.1293 1012.62 69.7396 1010.31 71.0156C1008.06 72.2917 1005.63 73.2639 1003.01 73.9323C1000.4 74.5399 998.001 74.8438 995.814 74.8438C993.14 74.8438 990.588 74.6311 988.158 74.2057C985.727 73.7196 983.509 73.2031 981.504 72.6562C979.559 72.0486 977.858 71.441 976.4 70.8333C974.941 70.1649 973.817 69.6484 973.027 69.2839C972.116 70.1345 971.174 71.2891 970.202 72.7474C969.23 74.145 968.349 75.6944 967.559 77.3958C966.829 79.0365 966.191 80.7986 965.645 82.6823C965.158 84.5052 964.915 86.2977 964.915 88.0599C964.915 91.5234 966.1 94.2882 968.47 96.3542C970.901 98.4201 974.638 99.4531 979.681 99.4531C981.625 99.4531 983.6 99.3316 985.605 99.0885C987.611 98.7847 989.525 98.4505 991.348 98.0859C993.171 97.6606 994.811 97.2352 996.27 96.8099C997.728 96.3238 998.913 95.8984 999.824 95.5339C1002.25 94.5616 1004.62 93.5286 1006.93 92.4349C1009.3 91.2804 1011.67 90.0043 1014.04 88.6068C1016.47 87.2092 1018.96 85.599 1021.52 83.776C1024.07 81.8924 1026.8 79.7049 1029.72 77.2135C1029.96 77.092 1030.15 77.0312 1030.27 77.0312C1030.45 77.0312 1030.63 77.092 1030.81 77.2135C1031 77.3351 1031.09 77.5477 1031.09 77.8516C1031.09 78.0946 1031 78.3073 1030.81 78.4896C1027.84 81.0417 1025.04 83.2595 1022.43 85.1432C1019.82 86.9661 1017.29 88.6068 1014.86 90.0651C1012.43 91.4627 1010.03 92.7083 1007.66 93.8021C1005.29 94.8958 1002.86 95.9592 1000.37 96.9922C999.034 97.4783 997.546 97.9644 995.905 98.4505C994.264 98.9366 992.533 99.362 990.71 99.7266C988.947 100.091 987.125 100.395 985.241 100.638C983.357 100.881 981.504 101.003 979.681 101.003C977.737 101.003 975.853 100.82 974.03 100.456C972.207 100.152 970.566 99.605 969.108 98.8151ZM976.582 69.1016C977.554 69.5269 978.709 69.9826 980.046 70.4688C981.443 70.9549 982.962 71.4106 984.603 71.8359C986.243 72.2005 988.006 72.5347 989.889 72.8385C991.773 73.0816 993.687 73.2031 995.632 73.2031C998.123 73.2031 1000.61 72.8385 1003.11 72.1094C1005.6 71.3802 1007.85 70.408 1009.85 69.1927C1011.86 67.9774 1013.5 66.5495 1014.77 64.9089C1016.05 63.2075 1016.69 61.4453 1016.69 59.6224C1016.69 58.3464 1016.35 57.1918 1015.68 56.1589C1015.08 55.0651 1014.23 54.1233 1013.13 53.3333C1012.04 52.5434 1010.76 51.9358 1009.3 51.5104C1007.91 51.0851 1006.45 50.8724 1004.93 50.8724C1002.98 50.8724 1000.86 51.1458 998.548 51.6927C996.3 52.2396 993.869 53.1814 991.257 54.5182C988.704 55.7943 985.97 57.526 983.053 59.7135C980.197 61.901 977.22 64.6658 974.121 68.0078L976.582 69.1016Z" fill="#858D36"/>
<circle cx="318.5" cy="40.5" r="5.5" fill="#E6E6E6"/>
<circle cx="321.5" cy="39.5" r="1.5" fill="#858D36"/>
<circle cx="417.5" cy="40.5" r="5.5" fill="#E6E6E6"/>
<circle cx="420.5" cy="39.5" r="1.5" fill="#858D36"/>
<circle cx="603.5" cy="40.5" r="5.5" fill="#E6E6E6"/>
<circle cx="607.5" cy="39.5" r="1.5" fill="#858D36"/>
<circle cx="891.5" cy="40.5" r="5.5" fill="#E6E6E6"/>
<circle cx="895.5" cy="39.5" r="1.5" fill="#858D36"/>
</svg>
