<svg width="130" height="66" viewBox="0 0 130 66" fill="none" xmlns="http://www.w3.org/2000/svg">
<path d="M32.41 32.48C32.41 15.07 45.97 4.16 58.4 4.16C62.81 4.16 67.47 5.52 71.48 8.09C64.26 14.03 59.69 22.77 59.69 32.56C59.69 42.35 64.18 51.17 71.4 57.11C67.39 59.68 62.9 61.04 58.4 61.04C45.96 61.04 32.41 50.21 32.41 32.48ZM94.43 65.22C113.69 65.22 129.17 50.86 129.17 32.57C129.17 14.28 113.69 0 94.43 0C87.85 0 81.67 1.68 76.46 4.65C71.16 1.68 64.99 0 58.41 0C39.15 0 23.67 14.52 23.67 32.57C23.67 50.62 39.15 65.22 58.41 65.22C77.67 65.22 93.15 50.86 93.15 32.57C93.15 24.71 89.3 17.89 84.4 12.03C84 11.55 83.68 11.47 83.2 11.79L80.15 14.04C79.75 14.36 79.67 14.76 79.91 15.08C83.2 19.41 84.96 25.83 84.96 32.57C84.96 41.56 81.43 48.78 76.38 53.67C71.41 48.7 67.88 41.47 67.88 32.49C67.88 14.52 82.4 4.17 94.44 4.17C106.48 4.17 120.43 15 120.43 32.57C120.43 50.14 106.87 61.05 94.44 61.05C91.55 61.05 88.58 60.89 85.37 59.53C85.05 59.37 84.89 59.37 84.65 59.61L82.24 61.94C82 62.18 82 62.42 82.32 62.58C85.77 64.26 89.7 65.23 94.43 65.23M14.84 62.09V3.36C14.84 1.76 13.96 1.51 11.79 2.64L1.44 7.94C0.560002 8.42 0 8.74004 0 9.54004C0 10.5 0.40002 10.66 1.52002 10.66H6.57001C6.97001 10.66 7.13 10.82 7.13 11.3V62.09C7.13 63.45 7.36996 63.53 8.64996 63.53H13.7C14.66 63.53 14.82 63.13 14.82 62.09" fill="#939598"/>
</svg>
