<?xml version="1.0" encoding="UTF-8"?><svg id="Layer_2" xmlns="http://www.w3.org/2000/svg" viewBox="0 0 130 156"><defs><style>.cls-1{fill:#fff;}.cls-2{fill:#006b36;}</style></defs><g id="assets"><g id="mobot-header-logo"><path id="container" class="cls-1" d="M0,0H130V156H0V0Z"/><path id="mobot-logo" class="cls-2" d="M78.423,56.031c0-1.025,.772-1.789,1.77-1.789,.964,0,1.732,.764,1.732,1.789,0,1.045-.768,1.809-1.732,1.809-.998,0-1.77-.764-1.77-1.809Zm1.77,2.165c1.171,0,2.176-.913,2.176-2.165,0-1.226-1.005-2.144-2.176-2.144-1.194,0-2.196,.918-2.196,2.144,0,1.252,1.002,2.165,2.196,2.165Zm-.467-1.983h.444l.646,1.071h.426l-.708-1.097c.363-.048,.645-.236,.645-.683,0-.498-.301-.699-.877-.699h-.947v2.479h.37v-1.071Zm0-.326v-.771h.521c.26,0,.542,.06,.542,.37,0,.378-.282,.401-.61,.401h-.452ZM60.48,20v15.59l-1.218-1.218v-14.065l-.023-.286-3.845,3.845v6.638l-6.673-6.673h-2.723v2.748l6.339,6.339h-6.302l-3.868,3.868h14.039l4.275,4.275v3.372l-.091-.091-1.125-1.125-3.087-3.087h-5.425l9.728,9.729,1.142,1.14,2.726,2.728V23.868l-3.868-3.868Zm9.209,24.461v-3.317l4.357-4.357h14.111l-3.868-3.868h-6.375l6.342-6.342v-2.745h-2.726l-6.751,6.751v-6.709l-3.868-3.868v14.445l-1.222,1.222v-15.671l-3.868,3.868v29.858h.003l2.74-2.739,1.125-1.126,9.734-9.732h-5.403l-4.331,4.331Zm-19.931-4.33h-3.871c.319,10.074,8.414,18.221,18.47,18.617v-3.87c-7.921-.393-14.286-6.807-14.599-14.747Zm30.737,0c-.314,7.964-6.718,14.393-14.673,14.75v3.87c10.088-.359,18.225-8.521,18.544-18.62h-3.871ZM22.669,81.871v-11.79l.593-.151,4.855,6.256,4.855-6.256,.577,.151v11.79h-2.132v-6.591l-3.204,4.226h-.193l-3.205-4.142v6.507h-2.147Zm14.904-11.773h2.163v11.773h-2.163v-11.773Zm12.467,2.616c-.673-.386-1.73-.805-2.532-.805-1.073,0-1.859,.503-1.859,1.292,0,.822,.914,1.308,2.147,1.794,2.612,1.073,3.365,2.332,3.317,3.791-.048,2.113-1.859,3.337-4.07,3.32-1.635-.016-3.045-.737-3.766-1.342l.817-1.744c.625,.487,1.714,1.073,2.804,1.073,.993,0,2.051-.403,2.051-1.274,0-.973-1.282-1.409-2.627-2.029-1.747-.839-2.853-1.861-2.853-3.589,0-1.677,1.362-3.337,3.846-3.337,1.314,0,2.82,.638,3.413,.956l-.689,1.895Zm10.706,0c-.673-.386-1.73-.805-2.532-.805-1.073,0-1.859,.503-1.859,1.292,0,.822,.914,1.308,2.147,1.794,2.612,1.073,3.365,2.332,3.317,3.791-.048,2.113-1.859,3.337-4.07,3.32-1.635-.016-3.045-.737-3.766-1.342l.817-1.744c.625,.487,1.714,1.073,2.804,1.073,.993,0,2.051-.403,2.051-1.274,0-.973-1.282-1.409-2.627-2.029-1.747-.839-2.853-1.861-2.853-3.589,0-1.677,1.362-3.337,3.846-3.337,1.314,0,2.82,.638,3.413,.956l-.689,1.895Zm9.808-2.851c3.477,0,5.976,2.751,5.976,6.122s-2.5,6.121-5.976,6.121-5.961-2.75-5.961-6.121,2.468-6.122,5.961-6.122Zm0,10.18c1.906,0,3.653-1.56,3.653-4.058s-1.747-4.092-3.653-4.092c-1.923,0-3.638,1.593-3.638,4.092s1.714,4.058,3.638,4.058Zm9.039-9.945h2.164v7.279c0,1.543,1.041,2.734,2.371,2.734,1.346,0,2.371-1.191,2.371-2.734v-7.279h2.179v7.312c0,2.432-1.538,4.696-4.567,4.696-2.997,0-4.519-2.264-4.519-4.696v-7.312Zm18.541,7.077l2.884,4.696h-2.628l-2.371-4.059c-.481,.051-.961,.068-1.506,.017v4.042h-2.164v-11.673c5.32-.956,7.772,.755,7.772,3.656,0,1.542-.929,2.767-1.987,3.32Zm-3.621-1.308c2.356,.251,3.381-.671,3.381-2.046,0-1.258-1.09-2.113-3.381-1.744v3.791Zm9.519-5.769h2.163v11.773h-2.163v-11.773ZM15,92.144c3.173-.537,7.547-.537,7.547,3.002,0,1.308-.689,2.147-1.217,2.415,.881,.218,2.003,1.174,2.003,2.885,0,2.365-1.714,4.075-8.333,3.354v-11.656Zm2.179,4.746h2.324c.449-.151,.897-.721,.897-1.409,0-1.66-1.747-1.761-3.221-1.543v2.952Zm0,4.964c2.195,.218,3.926-.05,3.926-1.643,0-1.023-.801-1.46-1.394-1.577h-2.532v3.22Zm14.631-10.046c3.477,0,5.976,2.751,5.976,6.122s-2.5,6.122-5.976,6.122-5.961-2.751-5.961-6.122,2.468-6.122,5.961-6.122Zm0,10.18c1.906,0,3.653-1.559,3.653-4.058s-1.747-4.092-3.653-4.092c-1.923,0-3.638,1.593-3.638,4.092s1.714,4.058,3.638,4.058Zm16.442-8.033h-3.157v9.862h-2.163v-9.862h-3.141v-1.912h8.46v1.912Zm.947,9.862l5.208-11.891h.753l5.176,11.891h-2.387l-.849-1.912h-4.647l-.849,1.912h-2.403Zm4.022-3.79h3.093l-1.538-3.791-1.555,3.791Zm19.215-7.984v11.791l-.497,.151-6.778-7.161v6.994h-2.131v-11.79l.496-.151,6.762,7.161v-6.994h2.147Zm4.023,0h2.163v11.774h-2.163v-11.774Zm15.912,10.097c-.689,.771-2.003,1.912-4.455,1.912-3.301,0-5.897-2.633-5.897-6.156,0-3.707,2.885-6.088,5.993-6.088,2.307,0,3.637,1.09,4.326,1.761l-1.314,1.643c-.465-.487-1.506-1.375-2.981-1.375-2.115,0-3.701,1.794-3.701,4.042,0,2.18,1.41,4.109,3.733,4.109,1.298,0,2.468-.754,2.981-1.325l1.314,1.476Zm2.004,1.677l5.208-11.891h.753l5.176,11.891h-2.387l-.849-1.912h-4.647l-.849,1.912h-2.403Zm4.022-3.79h3.093l-1.538-3.791-1.555,3.791Zm16.603,3.79h-6.794v-11.774h2.163v9.862h4.631v1.912Zm-79.511,15.658h4.022v4.495c-1.458,1.576-3.013,2.029-4.792,2.029-3.557,0-6.089-2.717-6.089-6.156,0-3.606,2.821-6.088,5.929-6.088,2.275,0,3.557,.956,4.39,1.778l-1.346,1.626c-.529-.553-1.442-1.375-2.965-1.375-2.067,0-3.669,1.777-3.669,4.008,0,2.499,1.57,4.176,3.878,4.176,.914,0,2.067-.369,2.564-.872v-1.728h-1.923v-1.895Zm6.299,6.289l5.208-11.891h.753l5.176,11.891h-2.387l-.849-1.912h-4.647l-.849,1.912h-2.403Zm4.022-3.79h3.093l-1.538-3.791-1.555,3.791Zm15.593-.906l2.884,4.696h-2.628l-2.371-4.058c-.481,.05-.961,.067-1.506,.016v4.042h-2.164v-11.673c5.32-.956,7.772,.755,7.772,3.656,0,1.544-.929,2.767-1.987,3.321Zm-3.621-1.308c2.356,.252,3.381-.671,3.381-2.046,0-1.258-1.09-2.113-3.381-1.744v3.79Zm9.36-5.702c7.499-1.241,9.39,2.918,9.39,5.82,0,2.818-1.939,6.927-9.39,5.887v-11.706Zm2.179,9.694c2.212,.218,4.904-.788,4.904-3.891,0-2.599-1.875-4.243-4.904-3.891v7.782Zm17.627,.101v1.912h-7.179v-11.774h7.019v1.912h-4.855v2.935h4.006v1.912h-4.006v3.103h5.015Zm12.82-9.862v11.791l-.497,.151-6.778-7.161v6.994h-2.132v-11.79l.497-.151,6.762,7.161v-6.994h2.147Z"/></g></g></svg>