<svg width="586" height="67" viewBox="0 0 586 67" fill="none" xmlns="http://www.w3.org/2000/svg">
<path d="M388.711 0C409.811 7.16893e-05 422.631 14.8703 422.631 31.4102C422.631 52.75 411.051 66.1707 389.201 66.1709C367.351 66.1709 354.321 49.6605 354.321 33.2705C354.321 14.7805 368.101 0 388.701 0H388.711ZM444.271 2.10059C451.83 2.10059 458.15 6.49017 458.15 14.5898C458.15 24.1398 451.11 26.6204 446.32 28.1504C454.758 29.5551 458.026 33.5217 458.222 44.4053L458.239 46.5557C458.416 57.4461 461.285 61.5 463.881 61.5C465.941 61.5 467.551 60.1402 468.131 59.2002L469.331 60.0205C468.981 60.5705 466.561 64.3699 460.951 64.3701C455.341 64.3701 451.091 59.2 451.091 47.04C451.091 29.4604 446.341 29.1299 442.551 29.1299V27.8203C442.662 27.79 450.681 26.0794 450.681 16.2402C450.681 6.93066 445.091 5.48057 442.791 5.48047H438.681V63.4004H429.781L429.891 2.11035V2.10059H444.271ZM481.56 20.1807L497.66 2.11035H503.41L486.5 21.0898C495.21 22.5399 498.22 29.0407 498.22 43.1006V45.4805C498.22 57.1604 501.19 61.5 503.87 61.5C505.93 61.4999 507.539 60.1401 508.109 59.2002L509.31 60.0205C508.959 60.5714 506.539 64.3701 500.93 64.3701C495.32 64.37 491.069 59.2 491.069 47.04V44.5801C491.069 37.3303 490.72 31.6804 489.46 27.9805C488.49 25.1207 484.96 22.9808 483.45 22.9805H481.56V63.4004H472.66L472.77 2.11035H481.56V20.1807ZM560.64 2.10059C568.2 2.10059 574.519 6.49017 574.52 14.5898C574.52 24.1398 567.479 26.6204 562.689 28.1504C571.127 29.5551 574.395 33.5217 574.591 44.4053L574.608 46.5557C574.785 57.4461 577.654 61.5 580.25 61.5C582.31 61.4999 583.92 60.1402 584.5 59.2002L585.689 60.0205C585.339 60.5715 582.919 64.3701 577.31 64.3701C571.7 64.37 567.45 59.1999 567.45 47.04C567.45 29.4609 562.7 29.1299 558.91 29.1299V27.8203C559.035 27.7871 567.04 26.0707 567.04 16.2402C567.04 6.93033 561.449 5.48047 559.149 5.48047H555.04V63.4004H546.14L546.25 2.11035H546.26V2.10059H560.64ZM188.831 41.9404V2.10059H193.61V64.1904L154.841 14.1699V63.3906H149.9L150.021 2.10059H157.48L188.831 41.9404ZM260.051 47.04L264.32 37.5898L248.711 2.10059H257.751L269.091 26.0898L279.931 2.10059H284.53L271.631 32.5801L278.211 47.04L298.011 2.10059H303.511L276.23 63.8799L266.791 43.8301L257.581 63.96L230.23 2.10059H239.681L260.051 47.04ZM320.819 2.10059L337.03 30.25L353.25 2.10059H358.77L341.689 31.75V63.3906H332.38V31.75L315.3 2.10059H320.819ZM540.74 9.2002C540.74 9.2002 537.24 5.47084 529.45 5.4707H521.29V27.0605H531.189C534.789 27.0605 535.91 26.7406 537.29 25.3506V32.6104C537.29 32.6104 536.279 30.4902 531.189 30.4902H521.29V59.2402H527.28C538.07 59.2401 542.24 55.9902 542.24 55.9902L536.77 63.3799H512.62L512.729 2.10059H537.55L540.74 9.2002ZM201.92 2.10059H224.28L227.47 9.2002C227.447 9.17759 223.699 5.47084 216.7 5.4707H211.28V27.0605H220.37C224.99 27.0605 225.67 26.6104 227.47 24.8105V33.9199C227.446 33.8844 225.43 30.84 220.37 30.8398H211.28V59.2305H223.92C236.16 59.2304 242.41 54.1406 242.41 54.1406L237.92 63.3701H201.8L201.91 2.09082L201.92 2.10059ZM127 9.15039C127 9.15039 123.5 5.42096 115.71 5.4209H107.55V27.0107H117.45C121.05 27.0107 122.17 26.6906 123.55 25.3008V32.5605C123.55 32.5605 122.54 30.4405 117.45 30.4404H107.55V59.1904H113.54C124.33 59.1904 128.5 55.9404 128.5 55.9404L123.029 63.3301H98.8799L98.9902 2.05078H123.81L127 9.15039ZM90.6006 63.2705H83.9502V30.3105H61.5703V63.2705H52.7402V1.9707H61.5703V26.9209H83.9502V1.9707L90.6006 1.9209V63.2705ZM47.4199 9.69043C47.4199 9.69043 43.7401 5.96007 35.5703 5.95996H27.9404L27.9199 63.2607H19.2002L19.1797 5.95996H11.8496C3.67989 5.96007 0 9.69043 0 9.69043L3.34961 2.10059H44.0703L47.4199 9.69043ZM388.341 3.60059C376.681 3.60059 363.391 12.8004 363.391 31.9004C363.391 46.2504 371.471 61.9404 389.831 61.9404C406.791 61.9403 413.541 48.0304 413.541 32.2705C413.541 19.6305 404.981 3.60061 388.341 3.60059Z" fill="white"/>
</svg>
